#N canvas 224 224 514 300 12;
#X obj 23 20 inlet;
#X obj 212 22 inlet;
#X obj 23 105 spigot 1;
#X obj 23 142 t a b b;
#X obj 23 175 outlet;
#X obj 166 53 del 100;
#X text 230 55 <--- min time to not be considered a repeat;
#X msg 166 77 1;
#X msg 167 105 0;
#X text 257 21 custom duration in samples;
#X text 67 19 trigger to assess;
#X connect 0 0 2 0;
#X connect 1 0 5 1;
#X connect 2 0 3 0;
#X connect 3 0 4 0;
#X connect 3 1 5 0;
#X connect 3 2 8 0;
#X connect 5 0 7 0;
#X connect 7 0 2 1;
#X connect 8 0 2 1;
