#N canvas 604 29 1102 925 12;
#N canvas 0 0 450 300 (subpatch) 0;
#X array ch3sample1 285328 float 2;
#X coords 0 1 285328 -1 200 140 1 0 0;
#X restore 821 25 graph;
#X obj 539 58 soundfiler;
#X floatatom 539 90 8 0 0 0 - - - 0;
#N canvas 0 0 450 300 (subpatch) 0;
#X array ch3sample2 132341 float 2;
#X coords 0 1 132341 -1 200 140 1 0 0;
#X restore 823 186 graph;
#N canvas 0 0 450 300 (subpatch) 0;
#X array ch3sample3 270872 float 2;
#X coords 0 1 270872 -1 200 140 1 0 0;
#X restore 824 349 graph;
#X obj 537 217 soundfiler;
#X floatatom 537 249 8 0 0 0 - - - 0;
#X obj 536 381 soundfiler;
#X floatatom 536 413 8 0 0 0 - - - 0;
#X floatatom 157 312 9 0 0 0 - - - 0;
#X floatatom 34 313 9 0 0 0 - - - 0;
#X floatatom 276 314 9 0 0 0 - - - 0;
#X obj 35 20 inlet;
#X text 82 19 loadbang;
#X obj 35 253 r ch3endsample1;
#X obj 35 285 v ch3dur1;
#X obj 155 252 r ch3endsample2;
#X obj 155 284 v ch3dur2;
#X obj 275 252 r ch3endsample3;
#X obj 275 284 v ch3dur3;
#X obj 541 125 s ch3endsample1;
#X obj 539 286 s ch3endsample2;
#X obj 535 446 s ch3endsample3;
#X msg 539 27 read -resize metal1.wav ch3sample1;
#X msg 537 186 read -resize metal2.wav ch3sample2;
#X msg 536 350 read -resize metal3.wav ch3sample3;
#X obj 35 58 t b b;
#X obj 67 91 bng 15 250 50 0 empty empty empty 17 7 0 10 #fcfcfc #000000
#000000;
#X obj 35 92 bng 15 250 50 0 empty empty empty 17 7 0 10 #fcfcfc #000000
#000000;
#X text 87 56 1 load files \; 2 register variables;
#X connect 1 0 2 0;
#X connect 2 0 20 0;
#X connect 5 0 6 0;
#X connect 6 0 21 0;
#X connect 7 0 8 0;
#X connect 8 0 22 0;
#X connect 12 0 26 0;
#X connect 14 0 15 0;
#X connect 15 0 10 0;
#X connect 16 0 17 0;
#X connect 17 0 9 0;
#X connect 18 0 19 0;
#X connect 19 0 11 0;
#X connect 23 0 1 0;
#X connect 24 0 5 0;
#X connect 25 0 7 0;
#X connect 26 0 28 0;
#X connect 26 1 27 0;
#X connect 27 0 23 0;
#X connect 27 0 24 0;
#X connect 27 0 25 0;
#X connect 28 0 15 0;
#X connect 28 0 17 0;
#X connect 28 0 19 0;
