#N canvas 952 332 958 624 12;
#X obj 102 387 expr abs($f1 / 44.1);
#X floatatom 29 137 5 1 3 0 - - - 0;
#X obj 30 113 + 1;
#X obj 29 220 bng 15 250 50 0 empty empty empty 17 7 0 10 #fcfcfc #000000
#000000;
#X obj 102 221 bng 15 250 50 0 empty empty empty 17 7 0 10 #fcfcfc
#000000 #000000;
#X obj 179 222 bng 15 250 50 0 empty empty empty 17 7 0 10 #fcfcfc
#000000 #000000;
#X obj 29 254 expr dur1;
#X obj 102 253 expr dur2;
#X obj 179 253 expr dur3;
#X floatatom 102 294 9 0 0 0 - - - 0;
#X obj 149 175 v selectedsample;
#X text 276 171 number of the randomly selected sample, f 23;
#X obj 30 16 inlet;
#X text 110 320 number of samples in the selected sample, f 22;
#X obj 102 441 outlet;
#X text 156 442 duration in ms;
#X obj 50 329 outlet;
#X obj 30 61 bng 15 250 50 0 empty empty empty 17 7 0 10 #fcfcfc #000000
#000000;
#X obj 30 85 vanillaUrn 4;
#X obj 29 177 select 1 2 3 4;
#X obj 254 222 bng 15 250 50 0 empty empty empty 17 7 0 10 #fcfcfc
#000000 #000000;
#X obj 254 253 expr dur4;
#X connect 0 0 14 0;
#X connect 1 0 10 0;
#X connect 1 0 19 0;
#X connect 2 0 1 0;
#X connect 3 0 6 0;
#X connect 4 0 7 0;
#X connect 5 0 8 0;
#X connect 6 0 9 0;
#X connect 7 0 9 0;
#X connect 8 0 9 0;
#X connect 9 0 0 0;
#X connect 9 0 16 0;
#X connect 12 0 17 0;
#X connect 17 0 18 0;
#X connect 18 0 2 0;
#X connect 19 0 3 0;
#X connect 19 1 4 0;
#X connect 19 2 5 0;
#X connect 19 3 20 0;
#X connect 20 0 21 0;
